# xmcd
#
# Track frame offsets:
#	150
#	17034
#	34943
#	48937
#	67090
#
# Disc length: 1216 seconds
#
# Revision: 2
# Processed by: cddbd v1.5.2PL0 Copyright (c) Steve Scherf et al.
# Submitted via: audiograbber 1.83.01
#
DISCID=3e04be05
DTITLE=Loomer - Coward Soul EP
DYEAR=2010
DGENRE=Shoegaze
TTITLE0=Rocket Fuzz
TTITLE1=Across The Clouds
TTITLE2=All Gone
TTITLE3=Nightmare Daydream
TTITLE4=Coward
EXTD=
EXTT0=
EXTT1=
EXTT2=
EXTT3=
EXTT4=
PLAYORDER=
